<?xml version="1.0" standalone="no"?>
<!DOCTYPE svg PUBLIC "-//W3C//DTD SVG 20010904//EN"
 "http://www.w3.org/TR/2001/REC-SVG-20010904/DTD/svg10.dtd">
<svg version="1.0" xmlns="http://www.w3.org/2000/svg"
 width="512.000000pt" height="512.000000pt" viewBox="0 0 512.000000 512.000000"
 preserveAspectRatio="xMidYMid meet">
<metadata>
Created by potrace 1.11, written by Peter Selinger 2001-2013
</metadata>
<g transform="translate(0.000000,512.000000) scale(0.100000,-0.100000)"
fill="#000000" stroke="none">
<path d="M0 2560 l0 -2560 2560 0 2560 0 0 2560 0 2560 -2560 0 -2560 0 0
-2560z m2869 1786 c502 -94 918 -366 1196 -781 133 -198 220 -407 272 -654 25
-116 27 -145 27 -351 0 -206 -2 -236 -27 -350 -29 -136 -92 -331 -135 -416
l-27 -53 -47 34 -47 35 29 64 c40 91 95 264 117 371 28 139 25 512 -5 650
-148 679 -648 1179 -1327 1327 -138 30 -511 33 -650 5 -292 -60 -574 -197
-793 -387 l-84 -73 -41 30 c-23 16 -42 35 -42 42 0 20 150 145 270 226 232
155 497 255 785 295 97 13 430 5 529 -14z m-1836 -1042 c-1 -5 -19 -49 -39
-99 -52 -126 -90 -266 -110 -398 -22 -152 -15 -450 15 -586 145 -673 649
-1176 1326 -1323 138 -30 511 -33 650 -5 292 60 574 197 793 387 l84 73 41
-30 c23 -16 42 -35 42 -42 0 -20 -150 -145 -270 -226 -197 -132 -407 -219
-655 -272 -114 -25 -144 -27 -350 -27 -206 0 -235 2 -351 27 -165 35 -287 76
-429 143 -481 230 -841 666 -973 1179 -45 177 -52 238 -51 465 0 193 3 228 27
340 29 140 78 292 127 399 l33 71 46 -34 c25 -18 45 -37 44 -42z m1643 -286
c30 -18 54 -39 54 -48 0 -17 -190 -903 -195 -908 -5 -5 -125 58 -125 66 0 30
196 922 203 922 5 0 33 -15 63 -32z m-446 -157 l0 -48 -240 -129 c-132 -71
-240 -131 -240 -134 0 -3 108 -64 240 -135 l240 -130 0 -48 c0 -27 -4 -47 -8
-45 -5 2 -133 71 -286 153 l-277 150 3 54 3 55 280 153 c154 84 281 153 283
153 1 0 2 -22 2 -49z m1250 -311 l0 -55 -275 -150 c-152 -82 -280 -151 -285
-153 -15 -5 -12 84 3 96 6 5 114 65 240 132 125 67 227 125 227 129 0 3 -91
55 -203 115 -286 155 -277 149 -277 194 0 21 2 41 5 44 3 3 132 -63 285 -146
l280 -151 0 -55z"/>
</g>
</svg>
